<?xml version="1.0" encoding="UTF-8" standalone="no"?>
<!DOCTYPE svg PUBLIC "-//W3C//DTD SVG 1.1//EN" "http://www.w3.org/Graphics/SVG/1.1/DTD/svg11.dtd">
<svg width="100%" height="100%" viewBox="0 0 3840 2160" version="1.1" xmlns="http://www.w3.org/2000/svg" xmlns:xlink="http://www.w3.org/1999/xlink" xml:space="preserve" xmlns:serif="http://www.serif.com/" style="fill-rule:evenodd;clip-rule:evenodd;stroke-linejoin:round;stroke-miterlimit:2;">
    <rect id="Pokedex-Backround" serif:id="Pokedex Backround" x="0" y="0" width="3840" height="2160" style="fill:none;"/>
    <g id="Pokedex-Backround1" serif:id="Pokedex Backround">
        <g opacity="0.6">
            <path d="M2450.73,1208.28l221.36,-0c2.925,-0 4.875,-1.95 5.363,-4.876c18.528,-121.407 120.919,-209.17 243.789,-209.17c120.919,-0 225.748,90.201 244.276,209.17c0.487,2.926 2.925,4.876 5.363,4.876l221.36,-0c2.925,-0 5.363,-2.438 5.363,-5.364c0,-0.487 0,-1.462 -0.487,-1.95c-20.479,-245.251 -229.162,-437.356 -475.875,-437.356c-247.202,-0 -456.372,192.593 -476.363,438.819c-0,1.463 0.487,2.925 1.463,4.388c1.462,0.975 2.925,1.463 4.388,1.463Z" style="fill:rgb(128,128,128);fill-rule:nonzero;"/>
            <path d="M3397.6,1279.96c0,-1.463 -0.487,-2.926 -1.462,-4.389c-0.976,-0.975 -2.438,-1.95 -3.901,-1.95l-221.36,0c-2.926,0 -4.876,1.95 -5.363,4.876c-18.528,119.456 -123.357,209.17 -243.789,209.17c-122.382,0 -225.26,-88.251 -243.788,-209.17c-0.488,-2.926 -2.926,-4.876 -5.364,-4.876l-221.36,0c-1.462,0 -2.925,0.488 -3.9,1.95c-0.975,0.976 -1.463,2.438 -1.463,4.389c19.991,246.226 229.161,438.819 475.875,438.819c246.714,-0 455.885,-192.593 475.875,-438.819Z" style="fill:rgb(128,128,128);fill-rule:nonzero;"/>
            <path d="M2921.24,1061.52c-89.227,0 -163.826,63.873 -177.478,152.124c-1.463,9.752 -2.438,18.528 -2.438,27.304c-0,8.777 0.975,17.553 2.438,27.305c13.164,86.788 89.714,152.124 177.478,152.124c89.226,-0 163.825,-63.873 177.478,-152.124c1.462,-10.239 2.437,-19.016 2.437,-27.305c0,-8.288 -0.975,-17.065 -2.437,-27.304c-13.165,-87.764 -87.764,-152.124 -177.478,-152.124Z" style="fill:rgb(128,128,128);fill-rule:nonzero;"/>
            <path d="M3264.49,1638.33c-1.951,-1.951 -5.364,-1.951 -7.314,-0c-67.286,57.046 -148.223,96.052 -234.037,113.118c-2.925,0.487 -4.876,3.413 -4.388,6.338l11.214,59.484c0.488,1.463 0.975,2.926 2.438,3.413c0.975,0.488 1.95,0.976 2.926,0.976l0.975,-0c100.441,-19.991 194.543,-65.823 272.068,-133.109c0.975,-0.975 1.95,-2.438 1.95,-3.9c-0,-1.463 -0.488,-2.926 -1.95,-3.901l-43.882,-42.419Z" style="fill:rgb(128,128,128);fill-rule:nonzero;"/>
            <path d="M2518.01,904.523c0.976,0.976 2.438,1.463 3.901,1.463c1.463,0 2.925,-0.975 3.901,-1.95c98.978,-116.044 242.813,-182.842 395.425,-182.842c95.565,0 188.692,26.33 270.117,75.575c2.438,1.463 5.364,0.975 7.314,-1.463l36.568,-48.758c0.975,-1.462 1.463,-2.925 0.975,-4.388c-0.487,-1.462 -0.975,-2.925 -2.438,-3.9c-93.614,-58.51 -201.856,-89.227 -312.536,-89.227c-171.628,0 -334.478,74.599 -447.109,204.782c-1.95,2.438 -1.95,5.364 0.488,7.314l43.394,43.394Z" style="fill:rgb(128,128,128);fill-rule:nonzero;"/>
            <path d="M3344.94,1730.97c116.043,-100.928 193.08,-239.888 215.997,-391.036c5.85,-37.056 8.288,-68.261 8.288,-98.979c0,-29.742 -2.438,-60.947 -8.288,-98.49c-23.404,-151.149 -99.954,-290.108 -216.485,-391.037c-117.506,-101.903 -268.167,-157.975 -423.704,-157.975c-155.537,0 -306.198,56.072 -423.217,157.975c-116.043,100.929 -193.08,239.4 -215.996,391.037c-5.851,35.105 -8.289,67.286 -8.289,98.49c-0,31.205 2.925,63.873 8.289,98.979c23.403,151.636 99.953,290.108 215.996,391.036c117.506,101.904 267.68,157.975 423.217,157.975c156.025,0 306.686,-56.071 424.192,-157.975Zm-1052.19,-392.987c-5.364,-35.105 -8.289,-66.798 -8.289,-97.515c0,-30.23 2.925,-61.922 8.289,-96.54c47.782,-312.537 312.049,-539.748 628.487,-539.748c316.925,-0 581.191,226.723 629.461,539.748c5.851,36.568 8.289,67.285 8.289,96.54c0,30.23 -2.438,60.947 -8.289,97.515c-48.27,313.025 -312.536,539.748 -628.974,539.748c-311.562,0 -581.679,-232.087 -628.974,-539.748Z" style="fill:rgb(128,128,128);fill-rule:nonzero;"/>
            <path d="M3423.93,1822.14c137.985,-119.456 229.162,-284.257 256.466,-464.173c6.826,-43.882 10.239,-80.938 10.239,-117.506c0,-35.593 -2.925,-72.649 -9.752,-116.531c-27.304,-179.428 -118.481,-344.229 -256.465,-464.173c-139.447,-120.919 -318.388,-187.23 -503.179,-187.23c-184.792,0 -363.245,66.311 -502.692,187.23c-137.985,119.456 -228.674,284.257 -256.466,464.173c-6.826,41.932 -9.751,79.963 -9.751,116.531c-0,37.056 3.413,75.574 9.751,117.506c27.792,179.916 118.481,344.717 256.466,464.173c139.447,120.919 317.9,187.717 502.204,187.717c185.279,0 363.732,-66.31 503.179,-187.717Zm-1220.89,-470.512c-6.339,-39.981 -9.264,-76.062 -9.264,-111.167c-0,-34.618 2.925,-70.699 9.264,-110.192c54.608,-356.907 356.418,-616.298 717.713,-616.298c361.782,0 664.08,259.391 718.688,616.298c6.339,41.931 9.264,77.037 9.264,110.192c0,34.618 -2.925,69.723 -9.751,111.167c-55.096,357.394 -356.906,616.785 -718.689,616.785c-354.468,0 -663.104,-265.242 -717.225,-616.785Z" style="fill:rgb(128,128,128);fill-rule:nonzero;"/>
            <path d="M2542.88,1985.48c0.487,-1.463 0.975,-2.926 0.487,-4.389c-0.487,-1.462 -1.462,-2.438 -2.925,-3.413c-252.077,-128.72 -420.291,-373.971 -449.546,-656.766c-0,-1.463 -0.975,-2.925 -1.95,-3.901c-0.975,-0.975 -2.926,-1.462 -4.389,-0.975l-36.08,5.364c-2.926,0.487 -4.876,2.925 -4.876,5.851c31.205,297.909 208.683,556.325 474.412,692.359c0.976,0.487 1.463,0.487 2.438,0.487c1.951,0 3.901,-0.975 4.876,-2.925l17.553,-31.692Z" style="fill:rgb(128,128,128);fill-rule:nonzero;"/>
            <path d="M3776.94,1038.12c-76.549,-333.015 -342.279,-593.868 -676.757,-664.567c-1.462,-0.488 -2.925,0 -4.388,0.975c-1.463,0.975 -1.95,1.951 -2.438,3.413l-7.313,35.593c-0.488,2.926 1.462,5.851 4.388,6.339c317.412,66.798 569.002,314.487 641.163,630.924c0.488,1.463 1.463,2.926 2.438,3.413c0.976,0.488 1.951,0.976 2.926,0.976c0.487,-0 0.975,-0 1.463,-0.488l34.618,-10.727c2.925,0 4.388,-2.925 3.9,-5.851Z" style="fill:rgb(128,128,128);fill-rule:nonzero;"/>
        </g>
    </g>
</svg>
