<?xml version="1.0" encoding="UTF-8" standalone="no"?>
<!DOCTYPE svg PUBLIC "-//W3C//DTD SVG 1.1//EN" "http://www.w3.org/Graphics/SVG/1.1/DTD/svg11.dtd">
<svg width="100%" height="100%" viewBox="0 0 435 536" version="1.1" xmlns="http://www.w3.org/2000/svg" xmlns:xlink="http://www.w3.org/1999/xlink" xml:space="preserve" xmlns:serif="http://www.serif.com/" style="fill-rule:evenodd;clip-rule:evenodd;stroke-linejoin:round;stroke-miterlimit:2;">
    <path d="M2.671,255.336l101.066,0c1.336,0 2.226,-0.89 2.449,-2.226c8.459,-55.43 55.208,-95.501 111.306,-95.501c55.208,0 103.07,41.184 111.529,95.501c0.222,1.336 1.335,2.226 2.449,2.226l101.065,0c1.336,0 2.449,-1.113 2.449,-2.449c0,-0.222 0,-0.667 -0.222,-0.89c-9.35,-111.974 -104.628,-199.683 -217.27,-199.683c-112.864,-0 -208.365,87.932 -217.492,200.351c-0,0.668 0.223,1.336 0.668,2.003c0.668,0.446 1.336,0.668 2.003,0.668Z" style="fill:rgb(128,128,128);fill-rule:nonzero;"/>
    <path d="M434.984,288.06c0,-0.668 -0.222,-1.335 -0.668,-2.003c-0.445,-0.446 -1.113,-0.891 -1.781,-0.891l-101.065,0c-1.336,0 -2.227,0.891 -2.449,2.226c-8.459,54.54 -56.321,95.501 -111.306,95.501c-55.876,-0 -102.847,-40.293 -111.306,-95.501c-0.223,-1.335 -1.336,-2.226 -2.449,-2.226l-101.066,0c-0.668,0 -1.336,0.223 -1.781,0.891c-0.445,0.445 -0.668,1.113 -0.668,2.003c9.127,112.419 104.628,200.351 217.27,200.351c112.641,0 208.142,-87.932 217.269,-200.351Z" style="fill:rgb(128,128,128);fill-rule:nonzero;"/>
    <path d="M217.492,188.33c-40.738,-0 -74.798,29.162 -81.031,69.455c-0.668,4.452 -1.113,8.459 -1.113,12.466c0,4.007 0.445,8.014 1.113,12.466c6.011,39.625 40.961,69.455 81.031,69.455c40.738,0 74.798,-29.162 81.031,-69.455c0.668,-4.674 1.113,-8.681 1.113,-12.466c0,-3.784 -0.445,-7.791 -1.113,-12.466c-6.011,-40.07 -40.07,-69.455 -81.031,-69.455Z" style="fill:rgb(128,128,128);fill-rule:nonzero;"/>
    <path d="M374.211,451.68c-0.89,-0.89 -2.449,-0.89 -3.339,0c-30.721,26.046 -67.674,43.855 -106.854,51.646c-1.336,0.223 -2.226,1.558 -2.003,2.894l5.12,27.159c0.222,0.668 0.445,1.335 1.113,1.558c0.445,0.223 0.89,0.445 1.335,0.445l0.446,0c45.858,-9.127 88.822,-30.052 124.217,-60.773c0.445,-0.445 0.891,-1.113 0.891,-1.781c-0,-0.668 -0.223,-1.335 -0.891,-1.781l-20.035,-19.367Z" style="fill:rgb(128,128,128);fill-rule:nonzero;"/>
    <path d="M33.392,116.649c0.445,0.445 1.113,0.668 1.781,0.668c0.668,-0 1.335,-0.446 1.781,-0.891c45.19,-52.982 110.86,-83.479 180.538,-83.479c43.632,-0 86.151,12.021 123.327,34.504c1.113,0.668 2.449,0.446 3.339,-0.667l16.696,-22.262c0.446,-0.667 0.668,-1.335 0.446,-2.003c-0.223,-0.668 -0.446,-1.336 -1.113,-1.781c-42.742,-26.713 -92.162,-40.738 -142.695,-40.738c-78.359,0 -152.712,34.06 -204.135,93.497c-0.891,1.113 -0.891,2.449 0.222,3.339l19.813,19.813Z" style="fill:rgb(128,128,128);fill-rule:nonzero;"/>
</svg>
